# xmcd
#
# Track frame offsets:
#	150
#	12302
#	25358
#	47290
#	65875
#	78260
#	93148
#	104503
#	118773
#	133015
#	144303
#	157540
#	172203
#	189718
#	204030
#	218733
#	229310
#	243638
#
# Disc length: 3496 seconds
#
# Revision: 2
# Processed by: cddbd v1.5.2PL0 Copyright (c) Steve Scherf et al.
# Submitted via: audiograbber 1.83.01
#
DISCID=f30da612
DTITLE=Various Artist - Ladies Of Country
DYEAR=1996
DGENRE=Country
TTITLE0=Tammy Wynette - Stand By Your Man
TTITLE1=Lynn Anderson - Rose Garden
TTITLE2=Mary Chapin Carpenter - Home Town Girl
TTITLE3=Dolly Parton - More Than I Can Say
TTITLE4=Tanya Tucker - You Are So Beautiful
TTITLE5=Roseanne Cash - I Don't Know Why You Don't Want Me
TTITLE6=Janice Fricke - Crazy Dreams
TTITLE7=Lacy J. Dalton - 16th Avenue
TTITLE8=Sweethearts Of The Rodeo - Everywhere I Turn
TTITLE9=Dolly Parton - Dumb Blonde
TTITLE10=Tanya Tucker - Delta Dawn
TTITLE11=Lacy J. Dalton - Blue-Eyed Blues
TTITLE12=Janice Fricke - Sleeping With Your Memory
TTITLE13=Sweethearts Of The Rodeo - So Sad (To Watch Love Go Bad)
TTITLE14=Roseanne Cash - Seven Year Ache
TTITLE15=Lynn Anderson - It's Only Make Believe
TTITLE16=Tammy Wynette - No Charge
TTITLE17=Mary Chapin Carpenter - Down Town Train
EXTD=Changed to "Compilation" and Spelling correction.
EXTT0=
EXTT1=
EXTT2=
EXTT3=
EXTT4=
EXTT5=
EXTT6=
EXTT7=
EXTT8=
EXTT9=
EXTT10=
EXTT11=
EXTT12=
EXTT13=
EXTT14=
EXTT15=
EXTT16=
EXTT17=
PLAYORDER=
